<svg xmlns="http://www.w3.org/2000/svg" xmlns:xlink="http://www.w3.org/1999/xlink" width="321" zoomAndPan="magnify" viewBox="0 0 240.75 141.750002" height="188" preserveAspectRatio="xMidYMid meet" version="1.0"><defs><clipPath id="5bf8ef9f89"><path d="M 122 45 L 148.90625 45 L 148.90625 73 L 122 73 Z M 122 45 " clip-rule="nonzero"/></clipPath></defs><path fill="#0080ad" d="M 137.734375 54.632812 C 137.734375 54.632812 136.113281 54.46875 130.125 51.070312 C 124.136719 47.671875 123.003906 32.941406 123.003906 32.941406 C 121.871094 28.082031 123.003906 14.648438 123.003906 14.648438 L 120.65625 11.570312 C 118.308594 10.601562 104.710938 11.570312 104.710938 11.570312 L 102.28125 14.808594 C 101.636719 24.199219 102.28125 36.015625 102.28125 36.015625 C 99.855469 52.203125 96.132812 52.527344 91.921875 53.660156 C 87.714844 54.792969 88.523438 57.867188 88.523438 57.867188 L 88.523438 129.902344 C 93.703125 130.066406 111.023438 129.253906 116.527344 128.769531 C 122.03125 128.285156 144.53125 128.769531 144.53125 128.769531 C 143.398438 122.78125 137.734375 54.632812 137.734375 54.632812 Z M 111.1875 31.644531 C 108.757812 31.320312 104.710938 30.835938 104.710938 30.835938 C 104.710938 28.570312 104.710938 14.972656 104.710938 14.972656 C 104.710938 14.972656 110.699219 14.484375 112.035156 14.484375 C 113.371094 14.484375 120.65625 15.132812 120.65625 15.132812 C 119.945312 19.195312 119.800781 28.078125 119.773438 31.53125 C 117.351562 31.355469 113.328125 31.929688 111.1875 31.644531 Z M 111.1875 31.644531 " fill-opacity="1" fill-rule="nonzero"/><g clip-path="url(#5bf8ef9f89)"><path fill="#ffffff" d="M 138.792969 67.222656 C 138.792969 67.222656 137.410156 71.476562 132.066406 70.738281 C 126.726562 70 122.746094 61.429688 124.945312 59.003906 C 126.664062 57.105469 128.507812 56.734375 135.628906 59.003906 C 142.753906 61.269531 147.769531 61.105469 148.578125 55.441406 C 149.390625 49.773438 144.046875 45.890625 141.621094 45.566406 L 141.621094 47.023438 C 141.621094 47.023438 145.828125 48.964844 146.800781 51.230469 C 147.769531 53.496094 147.464844 58.007812 144.53125 59.164062 C 141.601562 60.320312 132.328125 55.117188 127.019531 56.734375 C 121.707031 58.355469 122.007812 61.121094 124.363281 65.476562 C 126.722656 69.832031 129.964844 73.570312 134.011719 72.4375 C 138.058594 71.304688 139.515625 69.363281 139.839844 68.550781 C 139.839844 68.550781 140.015625 67.507812 138.792969 67.222656 Z M 138.792969 67.222656 " fill-opacity="1" fill-rule="nonzero"/></g><path fill="#ffffff" d="M 101.730469 68.109375 L 126.644531 67.222656 L 127.019531 80.015625 L 114.734375 86.355469 L 102.101562 80.742188 Z M 101.730469 68.109375 " fill-opacity="1" fill-rule="nonzero"/><path fill="#ffffff" d="M 88.441406 65.960938 C 88.441406 65.960938 83.425781 69.363281 80.996094 71.304688 C 78.570312 73.246094 76.058594 77.316406 76.546875 80.378906 C 77.03125 83.445312 78.667969 86.925781 82.828125 87.574219 C 86.984375 88.21875 96.617188 87.976562 100.097656 90.082031 C 103.578125 92.1875 106.332031 97.445312 104.550781 101.414062 C 102.769531 105.378906 101.878906 106.269531 103.660156 108.695312 C 105.441406 111.125 108.433594 111.609375 112.035156 109.910156 L 113.371094 108.777344 C 113.371094 108.777344 112.804688 107.96875 112.035156 108.210938 C 111.265625 108.453125 109.40625 110.558594 107.464844 110.074219 C 105.519531 109.585938 103.09375 107.980469 103.171875 106.105469 C 103.253906 104.234375 106.574219 100.847656 105.84375 97.042969 C 105.117188 93.238281 102.363281 86.355469 88.460938 86.355469 C 86.5 86.355469 79.214844 87.734375 77.355469 80.378906 C 76.066406 75.289062 87.550781 67.347656 88.441406 67.222656 Z M 88.441406 65.960938 " fill-opacity="1" fill-rule="nonzero"/></svg>